<svg width="16" height="16" viewBox="0 0 16 16" fill="none" xmlns="http://www.w3.org/2000/svg">
<path fill-rule="evenodd" clip-rule="evenodd" d="M0.60044 1.02808C0.760628 0.868091 0.977772 0.778227 1.20417 0.778227C1.43057 0.778227 1.64772 0.868091 1.8079 1.02808L7.75409 6.97427L13.7003 1.02808C13.7785 0.944143 13.8728 0.876819 13.9776 0.830124C14.0824 0.783429 14.1955 0.758321 14.3103 0.756298C14.425 0.754274 14.5389 0.775375 14.6453 0.818344C14.7517 0.861312 14.8483 0.925268 14.9294 1.00639C15.0106 1.08752 15.0745 1.18416 15.1175 1.29054C15.1605 1.39692 15.1816 1.51086 15.1795 1.62557C15.1775 1.74029 15.1524 1.85342 15.1057 1.95821C15.059 2.06301 14.9917 2.15733 14.9077 2.23554L8.96156 8.18173L14.9077 14.1279C14.9917 14.2061 15.059 14.3005 15.1057 14.4053C15.1524 14.5101 15.1775 14.6232 15.1795 14.7379C15.1816 14.8526 15.1605 14.9666 15.1175 15.0729C15.0745 15.1793 15.0106 15.2759 14.9294 15.3571C14.8483 15.4382 14.7517 15.5022 14.6453 15.5451C14.5389 15.5881 14.425 15.6092 14.3103 15.6072C14.1955 15.6051 14.0824 15.58 13.9776 15.5333C13.8728 15.4867 13.7785 15.4193 13.7003 15.3354L7.75409 9.3892L1.8079 15.3354C1.64595 15.4863 1.43174 15.5685 1.21041 15.5645C0.98908 15.5606 0.777904 15.471 0.621375 15.3145C0.464845 15.1579 0.375183 14.9467 0.371278 14.7254C0.367373 14.5041 0.449529 14.2899 0.60044 14.1279L6.54663 8.18173L0.60044 2.23554C0.44045 2.07536 0.350586 1.85821 0.350586 1.63181C0.350586 1.40541 0.44045 1.18827 0.60044 1.02808Z" fill="#58667E"/>
</svg>
